<?xml version="1.0" standalone="no"?>
<!DOCTYPE svg PUBLIC "-//W3C//DTD SVG 20010904//EN"
 "http://www.w3.org/TR/2001/REC-SVG-20010904/DTD/svg10.dtd">
<svg version="1.0" xmlns="http://www.w3.org/2000/svg"
 width="300.000000pt" height="300.000000pt" viewBox="0 0 300.000000 300.000000"
 preserveAspectRatio="xMidYMid meet">
<metadata>
Created by potrace 1.11, written by Peter Selinger 2001-2013
</metadata>
<g transform="translate(0.000000,300.000000) scale(0.100000,-0.100000)"
fill="#000000" stroke="none">
<path d="M2390 2820 c-42 -12 -84 -37 -117 -72 -96 -100 -86 -292 20 -383 91
-78 267 -81 359 -5 32 27 77 100 85 140 29 141 -44 279 -169 315 -56 16 -129
18 -178 5z"/>
<path d="M259 2721 c-3 -87 -3 -2511 1 -2512 3 -1 119 -2 258 -3 l252 -1 0
541 0 542 375 0 c339 0 375 -2 376 -17 0 -9 1 -251 1 -539 1 -287 4 -523 7
-523 3 -1 117 -2 253 -3 162 -1 249 2 251 9 2 5 3 575 3 1265 l-1 1255 -256 1
-256 1 0 -511 1 -511 -375 0 -374 0 -3 511 -2 512 -255 -1 c-227 0 -255 -2
-256 -16z"/>
<path d="M2245 2008 l1 -53 102 -35 c56 -19 102 -37 102 -40 0 -3 -46 -21
-102 -40 l-102 -35 -1 -53 c0 -28 2 -52 5 -52 3 0 71 28 150 62 139 60 149 63
235 65 50 1 93 2 98 2 4 1 7 24 7 51 l0 50 -89 0 c-87 0 -93 2 -245 65 -86 36
-157 65 -159 65 -2 0 -3 -24 -2 -52z"/>
<path d="M2675 1677 c-27 -13 -72 -32 -98 -42 -48 -18 -48 -18 -63 4 -32 45
-126 60 -190 31 -62 -28 -76 -63 -78 -191 l-1 -109 247 0 248 0 0 50 0 50 -89
0 c-70 0 -90 3 -95 15 -6 17 27 52 58 61 12 3 45 15 74 27 l52 21 0 53 c0 29
-3 53 -7 53 -5 0 -30 -11 -58 -23z m-218 -110 c7 -7 15 -32 18 -55 l4 -42 -74
0 c-64 0 -75 2 -76 18 -2 34 3 67 13 79 19 24 91 24 115 0z"/>
<path d="M2378 1290 c-49 -9 -107 -54 -125 -98 -28 -68 -14 -148 35 -195 47
-45 86 -55 207 -52 125 2 128 3 177 32 109 64 96 248 -20 299 -40 18 -209 26
-274 14z m255 -113 c15 -10 27 -23 28 -30 0 -6 2 -20 4 -30 2 -10 -7 -30 -20
-45 -23 -27 -25 -27 -150 -27 -127 0 -127 0 -151 28 -37 43 -25 89 29 112 47
20 226 14 260 -8z"/>
<path d="M2248 903 c-7 -13 -2 -318 4 -329 7 -11 48 -11 67 0 7 4 12 20 11 34
-1 15 -2 39 -1 54 l1 27 133 0 c72 0 165 0 205 0 l72 1 0 50 0 51 -147 -1
c-82 -1 -175 -1 -208 -1 l-60 1 2 60 3 60 -40 0 c-21 0 -40 -3 -42 -7z"/>
<path d="M2330 513 c-38 -14 -79 -67 -87 -112 -8 -56 -6 -76 15 -120 32 -69
126 -93 193 -48 21 14 46 46 67 86 41 82 59 101 91 101 39 0 52 -13 56 -53 4
-40 -15 -63 -55 -69 -22 -3 -25 -7 -24 -43 3 -63 3 -64 22 -60 67 13 114 56
132 120 33 117 -39 215 -148 202 -62 -7 -91 -32 -136 -118 -42 -81 -49 -89
-86 -89 -34 0 -50 17 -50 53 0 31 23 56 52 57 15 0 17 9 17 50 -1 44 -4 50
-23 49 -11 0 -28 -3 -36 -6z"/>
</g>
</svg>
